<?xml version="1.0" encoding="UTF-8" standalone="no"?>
<!-- Created with Inkscape (http://www.inkscape.org/) -->

<svg
   xmlns:dc="http://purl.org/dc/elements/1.1/"
   xmlns:cc="http://creativecommons.org/ns#"
   xmlns:rdf="http://www.w3.org/1999/02/22-rdf-syntax-ns#"
   xmlns:svg="http://www.w3.org/2000/svg"
   xmlns="http://www.w3.org/2000/svg"
   xmlns:xlink="http://www.w3.org/1999/xlink"
   xmlns:sodipodi="http://sodipodi.sourceforge.net/DTD/sodipodi-0.dtd"
   xmlns:inkscape="http://www.inkscape.org/namespaces/inkscape"
   version="1.1"
   id="svg3680"
   width="620"
   height="659"
   viewBox="0 0 620 659"
   sodipodi:docname="Irkutsk_Oblast.svg"
   inkscape:version="0.92.1 r15371">
  <metadata
     id="metadata3686">
    <rdf:RDF>
      <cc:Work
         rdf:about="">
        <dc:format>image/svg+xml</dc:format>
        <dc:type
           rdf:resource="http://purl.org/dc/dcmitype/StillImage" />
        <dc:title />
      </cc:Work>
    </rdf:RDF>
  </metadata>
  <defs
     id="defs3684" />
  <sodipodi:namedview
     pagecolor="#ffffff"
     bordercolor="#666666"
     borderopacity="1"
     objecttolerance="10"
     gridtolerance="10"
     guidetolerance="10"
     inkscape:pageopacity="0"
     inkscape:pageshadow="2"
     inkscape:window-width="1366"
     inkscape:window-height="705"
     id="namedview3682"
     showgrid="false"
     inkscape:zoom="4.6010224"
     inkscape:cx="216.59697"
     inkscape:cy="92.890534"
     inkscape:window-x="-8"
     inkscape:window-y="-8"
     inkscape:window-maximized="1"
     inkscape:current-layer="svg3680" />
  <image
     sodipodi:absref="C:\Users\user\Desktop\java programming\HTML5Application\public_html\Irkutsk_Oblast.png"
     xlink:href="Irkutsk_Oblast.png"
     y="0"
     x="0"
     id="image3688"
     preserveAspectRatio="none"
     height="659"
     width="620" />
  <script
     xlink:href="jquery-3.2.1.min.js"
     id="script14"
     language="JavaScript" />
  <script
     xlink:href="js.js"
     id="script16"
     language="JavaScript" />
  <path
     style="fill:none;stroke:#000000;stroke-width:1px;stroke-linecap:butt;stroke-linejoin:miter;stroke-opacity:1;"
     d="m 200.39024,525.5514 c 0,0.72448 0,1.44896 0,2.17343 0,0.0979 0.0331,0.58589 0,0.65203 -0.0458,0.0916 -0.17153,0.12571 -0.21735,0.21735 -0.0324,0.0648 0.0512,0.16611 0,0.21734 -0.0512,0.0512 -0.15254,-0.0324 -0.21734,0 -0.18328,0.0916 -0.25141,0.34305 -0.43469,0.43469 -0.0648,0.0324 -0.16611,-0.0512 -0.21734,0 -0.0512,0.0512 0.0324,0.15254 0,0.21734 -0.1304,0.26081 -0.52162,0.39122 -0.65203,0.65203 -0.0324,0.0648 0.0324,0.15254 0,0.21734 -0.0458,0.0916 -0.17152,0.1257 -0.21734,0.21734 -0.0324,0.0648 0.0725,0.21735 0,0.21735 -0.0724,0 0,-0.28979 0,-0.21735 0,0.0516 -0.0244,0.82066 0,0.86938 0.24028,0.48055 0.13489,0.0674 0.43469,0.21734 0.90452,0.45226 -0.23235,-0.015 0.21734,0.43468 0.0444,0.0444 0.56585,-0.0431 0.65203,0 0.0916,0.0458 0.17152,0.12571 0.21734,0.21735 0.0121,0.0243 0.0121,1.06245 0,1.08671 -0.0458,0.0916 -0.1449,0.1449 -0.21734,0.21735 -0.0725,0.0724 -0.12571,0.17152 -0.21735,0.21734 -0.0648,0.0324 -0.15254,-0.0324 -0.21734,0 -0.0916,0.0458 -0.1257,0.17152 -0.21734,0.21734 -0.1296,0.0648 -0.30509,-0.0648 -0.43469,0 -0.26081,0.13041 -0.39122,0.52162 -0.65203,0.65203 -0.0661,0.0331 -0.55414,0 -0.65203,0 -0.36223,0 -0.72447,0 -1.08671,0 -0.0725,0 -0.1449,0 -0.21734,0 -0.0725,0 -0.15255,0.0324 -0.21735,0 -0.26081,-0.13041 -0.39121,-0.52162 -0.65203,-0.65203 -0.0648,-0.0324 -0.16611,0.0512 -0.21734,0 -0.0512,-0.0512 0,-0.14489 0,-0.21734 0,-0.0725 0,-0.1449 0,-0.21734 0,-0.36224 0,-0.72448 0,-1.08672 0,-0.0725 0,-0.1449 0,-0.21734 0,-0.0725 0.0324,-0.15255 0,-0.21735 -0.10693,-0.21387 -0.76243,-0.6555 -0.86937,-0.86937 -0.0648,-0.1296 0.0648,-0.30509 0,-0.43468 -0.24028,-0.48056 -0.13489,-0.0675 -0.43469,-0.21735 -0.0916,-0.0458 -0.14489,-0.14489 -0.21734,-0.21734 -0.0725,-0.0725 -0.17152,-0.1257 -0.21734,-0.21734 -0.0324,-0.0648 0.0324,-0.15255 0,-0.21735 -0.24028,-0.48055 -0.13489,-0.0674 -0.43469,-0.21734 -0.0916,-0.0458 -0.14489,-0.14489 -0.21734,-0.21734 -0.16324,-0.16325 -0.48083,-0.43469 -0.21734,-0.43469 0.0724,0 0.0724,0.21735 0,0.21735 -0.10246,0 -0.12571,-0.17153 -0.21735,-0.21735 -0.0648,-0.0324 -0.14489,0 -0.21734,0 -0.0725,0 -0.1449,0 -0.21734,0 -0.0979,0 -0.58589,-0.0331 -0.65203,0 -0.33145,0.16572 -0.21735,0.57115 -0.21735,0.86937 0,0.21735 0,0.43469 0,0.65203 0,0.0725 0,0.28979 0,0.21735 0,-0.1449 0,-0.57959 0,-0.43469 0,0.36224 0,0.72448 0,1.08672 0,0.0527 0.007,0.64503 0,0.65202 -0.44969,0.44969 0.0176,-0.68718 -0.43468,0.21735 -0.0324,0.0648 0.0324,0.15254 0,0.21734 -0.0458,0.0916 -0.17152,0.1257 -0.21734,0.21734 -0.0324,0.0648 0.0724,0.21735 0,0.21735 -0.0725,0 0,-0.28979 0,-0.21735 0,0.53715 0.10245,0.33223 -0.21735,0.65203 -0.0724,0.0725 -0.1257,0.17153 -0.21734,0.21735 -0.0862,0.0431 -0.6076,-0.0444 -0.65203,0 -0.0512,0.0512 0.0512,0.16611 0,0.21734 -0.0512,0.0512 -0.15254,-0.0324 -0.21734,0 -0.0577,0.0289 -0.62318,0.59432 -0.65203,0.65203 -0.0324,0.0648 0,0.14489 0,0.21734 0,0.0725 0,0.1449 0,0.21734 0,0.0725 0,0.28979 0,0.21735 0,-1.35031 0,0.88699 0,1.08671 0,0.0725 0.0725,0.21734 0,0.21734 -0.0725,0 0,-0.28979 0,-0.21734 0,0.1449 0.0458,0.29723 0,0.43469 -0.0648,0.19439 -0.34305,0.2514 -0.43469,0.43468 -0.0324,0.0648 0.0324,0.15255 0,0.21735 -0.0458,0.0916 -0.17152,0.1257 -0.21734,0.21734 -0.0324,0.0648 0.0324,0.15254 0,0.21734 -0.0208,0.0416 -0.82777,0.84857 -0.86937,0.86937 -0.1296,0.0648 -0.30509,-0.0648 -0.43469,0 -0.0916,0.0458 -0.1257,0.17153 -0.21734,0.21735 -0.0648,0.0324 -0.1449,0 -0.21734,0 -0.3235,0 -0.27742,0.0324 -0.65203,-0.21735 -0.1705,-0.11366 -0.25141,-0.34304 -0.43469,-0.43468 -0.0648,-0.0324 -0.16611,0.0512 -0.21734,0 -0.0512,-0.0512 0.0512,-0.16612 0,-0.21735 -0.0512,-0.0512 -0.15255,0.0324 -0.21734,0 -0.0916,-0.0458 -0.12571,-0.17152 -0.21735,-0.21734 -0.0661,-0.0331 -0.55414,0 -0.65203,0 -0.0979,0 -0.58588,-0.0331 -0.65203,0 -0.0916,0.0458 -0.1257,0.17152 -0.21734,0.21734 -0.29979,0.1499 -0.19441,-0.26321 -0.43468,0.21735 -0.0324,0.0648 0.0324,0.15254 0,0.21734 -0.0458,0.0916 -0.17153,0.1257 -0.21735,0.21734 -0.0324,0.0648 0.0512,0.16612 0,0.21735 -0.0512,0.0512 -0.15254,-0.0324 -0.21734,0 -0.0916,0.0458 -0.1449,0.14489 -0.21734,0.21734 -0.0725,0.0725 -0.17153,0.1257 -0.21735,0.21734 -0.0648,0.1296 0.0648,0.30509 0,0.43469 -0.0916,0.18328 -0.34304,0.25141 -0.43468,0.43468 -0.0324,0.0648 0.0512,0.16612 0,0.21735 -0.10246,0.10245 -0.33223,-0.10246 -0.43469,0 -0.0512,0.0512 0.0512,0.16611 0,0.21734 -0.0512,0.0512 -0.15254,-0.0324 -0.21734,0 -0.0916,0.0458 -0.1257,0.17152 -0.21734,0.21734 -0.1296,0.0648 -0.33223,-0.10245 -0.43469,0 -0.0512,0.0512 0.0512,0.16612 0,0.21735 -0.0512,0.0512 -0.1449,0 -0.21734,0 -0.43469,0 -0.86938,0 -1.30406,0 -0.0725,0 -0.16612,-0.0512 -0.21734,0 -0.0512,0.0512 0.0512,0.16611 0,0.21734 -0.0512,0.0512 -0.15255,-0.0324 -0.21735,0 -0.0577,0.0289 -0.62317,0.59432 -0.65203,0.65203 -0.0324,0.0648 0.0324,0.15254 0,0.21734 -0.0458,0.0916 -0.17152,0.1257 -0.21734,0.21734 -0.0324,0.0648 0,0.1449 0,0.21735 0,0.15405 0.0281,1.24786 0,1.30406 -0.0458,0.0916 -0.17152,0.1257 -0.21734,0.21734 -0.0331,0.0661 0,0.55415 0,0.65203 0,0.50713 0,1.01426 0,1.5214 0,0.29091 0,0.14378 0,0.43468 0,0.0725 0.0725,0.21735 0,0.21735 -0.0725,0 0,-0.28979 0,-0.21735 0,0.1449 0,0.2898 0,0.43469 0,0.0725 0.0725,0.21734 0,0.21734 -0.0725,0 0,-0.28979 0,-0.21734 0,0.28979 0,0.57958 0,0.86937 0,0.0725 -0.0512,0.16612 0,0.21735 0.0512,0.0512 0.14489,0 0.21734,0 0.28979,0 0.57958,0 0.86937,0 0.1449,0 0.28979,0 0.43469,0 0.0725,0 0.21734,-0.0725 0.21734,0 0,0.0724 -0.28979,0 -0.21734,0 0.72448,0 1.44895,0 2.17343,0 0.15405,0 1.24786,-0.0281 1.30406,0 0.0916,0.0458 0.14489,0.14489 0.21734,0.21734 0.0725,0.0725 0.14489,0.14489 0.21734,0.21734 0.0725,0.0725 0.17153,0.1257 0.21735,0.21734 0.0324,0.0648 -0.0324,0.15255 0,0.21735 0.0458,0.0916 0.17152,0.1257 0.21734,0.21734 0.0648,0.1296 -0.10246,0.33223 0,0.43469 0.0512,0.0512 0.16611,-0.0512 0.21734,0 0.0512,0.0512 -0.0324,0.15254 0,0.21734 0.0916,0.18328 0.34305,0.25141 0.43469,0.43469 0.0869,0.17387 -0.0869,0.47815 0,0.65202 0.11601,0.23203 0.31867,0.20267 0.43468,0.43469 0.11602,0.23202 -0.11601,0.20266 0,0.43469 0.0458,0.0916 0.17153,0.1257 0.21735,0.21734 0.0324,0.0648 -0.0512,0.16611 0,0.21734 0.0512,0.0512 0.16611,-0.0512 0.21734,0 0.0512,0.0512 0,0.1449 0,0.21735 0,0.0724 0.0724,0.21734 0,0.21734 -0.0725,0 -0.0512,-0.26857 0,-0.21734 0.11455,0.11454 0.16611,0.281 0.21734,0.43468 0.0229,0.0687 -0.0512,0.16612 0,0.21734 0.0512,0.0512 0.21735,-0.0724 0.21735,0 0,0.0725 -0.26858,-0.0512 -0.21735,0 0.11455,0.11455 0.32014,0.1028 0.43469,0.21735 0.0512,0.0512 -0.0324,0.15254 0,0.21734 0.0458,0.0916 0.17152,0.1257 0.21734,0.21734 0.0324,0.0648 -0.0512,0.16612 0,0.21735 0.0512,0.0512 0.15254,-0.0324 0.21734,0 0.0916,0.0458 0.1449,0.14489 0.21735,0.21734 0.0724,0.0725 0.14489,0.14489 0.21734,0.21734 0.0724,0.0725 0.17152,0.12571 0.21734,0.21735 0.0324,0.0648 -0.0512,0.16611 0,0.21734 0.10246,0.10245 0.30509,-0.0648 0.43469,0 0.0916,0.0458 0.1257,0.17152 0.21734,0.21734 0.0648,0.0324 0.16612,-0.0512 0.21734,0 0.4497,0.44969 -0.68718,-0.0176 0.21735,0.43469 0.0648,0.0324 0.15254,-0.0324 0.21734,0 0.0916,0.0458 0.1257,0.17152 0.21734,0.21734 0.0648,0.0324 0.15255,-0.0324 0.21735,0 0.0916,0.0458 0.1257,0.17152 0.21734,0.21734 0.17387,0.0869 0.47815,-0.0869 0.65203,0 0.0916,0.0458 0.1257,0.17153 0.21734,0.21735 0.1296,0.0648 0.30509,-0.0648 0.43469,0 0.90453,0.45226 -0.23235,-0.015 0.21734,0.43468 0.10246,0.10246 0.30509,-0.0648 0.43469,0 0.0916,0.0458 0.1257,0.17153 0.21734,0.21734 0.0572,0.0286 0.75572,0 0.86937,0 0.0725,0 0.16612,0.0512 0.21734,0 0.10246,-0.10245 -0.0648,-0.30508 0,-0.43468 0.11637,-0.23273 0.31833,-0.20196 0.43469,-0.43469 0.0648,-0.1296 -0.0648,-0.30508 0,-0.43468 0.0458,-0.0916 0.17152,-0.12571 0.21734,-0.21735 0.0324,-0.0648 -0.0324,-0.15254 0,-0.21734 0.0458,-0.0916 0.17153,-0.1257 0.21735,-0.21734 0.0869,-0.17388 -0.0869,-0.47816 0,-0.65203 0.0458,-0.0916 0.17152,-0.1257 0.21734,-0.21734 0.0324,-0.0648 -0.0324,-0.15255 0,-0.21735 0.0458,-0.0916 0.17152,-0.1257 0.21734,-0.21734 0.0324,-0.0648 -0.0324,-0.15254 0,-0.21734 0.0916,-0.18328 0.34305,-0.25141 0.43469,-0.43469 0.0648,-0.1296 -0.10246,-0.33223 0,-0.43468 0.0512,-0.0512 0.15254,0.0324 0.21734,0 0.48056,-0.24028 0.0675,-0.1349 0.21734,-0.43469 0.0458,-0.0916 0.17153,-0.1257 0.21735,-0.21734 0.066,-0.13198 -0.066,-1.17209 0,-1.30406 0.0458,-0.0916 0.17152,-0.1257 0.21734,-0.21734 0.0324,-0.0648 0,-0.1449 0,-0.21735 0,-0.0725 0,-0.14489 0,-0.21734 0,-0.0979 -0.0331,-0.58588 0,-0.65203 0.0916,-0.18328 0.34305,-0.25141 0.43469,-0.43469 0.0648,-0.12959 -0.10246,-0.33223 0,-0.43468 0.44969,-0.44969 -0.0176,0.68718 0.43468,-0.21734 0.3198,-0.6396 -0.50349,0.28615 0.21735,-0.43469 0.0724,-0.0725 0.1257,-0.17152 0.21734,-0.21734 0.29979,-0.1499 0.19441,0.26321 0.43468,-0.21735 0.0393,-0.0786 0,-0.93554 0,-1.08671 0,-0.43469 0,-0.86937 0,-1.30406 0,-0.0725 0,-0.14489 0,-0.21734 0,-0.0725 -0.0324,-0.15255 0,-0.21735 0.0458,-0.0916 0.17153,-0.1257 0.21735,-0.21734 0.0324,-0.0648 -0.0324,-0.15254 0,-0.21734 0.0458,-0.0916 0.17152,-0.1257 0.21734,-0.21734 0.0324,-0.0648 0,-0.1449 0,-0.21735 0.0725,-0.0725 0.17152,-0.1257 0.21734,-0.21734 0.0324,-0.0648 -0.0512,-0.16612 0,-0.21734 0.0512,-0.0512 0.1449,0 0.21735,0 0.0979,0 0.58588,-0.0331 0.65203,0 0.0916,0.0458 0.1257,0.17152 0.21734,0.21734 0.0648,0.0324 0.15254,-0.0324 0.21734,0 0.26081,0.13041 0.39122,0.52162 0.65203,0.65203 0.0648,0.0324 0.15254,-0.0324 0.21734,0 0.0916,0.0458 0.12571,0.17152 0.21735,0.21734 0.0648,0.0324 0.16611,-0.0512 0.21734,0 0.44969,0.44969 -0.68719,-0.0176 0.21734,0.43469 0.13661,0.0683 0.73277,-0.0683 0.86937,0 0.0916,0.0458 0.12571,0.17152 0.21735,0.21734 0.0243,0.0121 1.06245,0.0121 1.08671,0 0.21387,-0.10694 0.6555,-0.76244 0.86937,-0.86937 0.0648,-0.0324 0.16612,0.0512 0.21735,0 0.0512,-0.0512 0.0724,-0.21734 0,-0.21734 -0.10246,0 -0.21735,0.3198 -0.21735,0.21734 0,-0.162 0.16612,-0.281 0.21735,-0.43469 0.0458,-0.13746 -0.10246,-0.33223 0,-0.43468 0.0512,-0.0512 0.16611,0.0512 0.21734,0 0.0512,-0.0512 -0.0324,-0.15255 0,-0.21735 0.0458,-0.0916 0.1449,-0.14489 0.21734,-0.21734 0.0725,-0.0725 0.12571,-0.17152 0.21735,-0.21734 0.0648,-0.0324 0.16611,0.0512 0.21734,0 0.0512,-0.0512 -0.0324,-0.15255 0,-0.21735 0.0288,-0.0577 0.59432,-0.62317 0.65203,-0.65202 0.0648,-0.0324 0.16611,0.0512 0.21734,0 0.0512,-0.0512 -0.0324,-0.15255 0,-0.21735 0.0458,-0.0916 0.1449,-0.14489 0.21734,-0.21734 0.0725,-0.0725 0.1449,-0.1449 0.21735,-0.21734 0.0724,-0.0725 0.14489,-0.28979 0.21734,-0.21735 0.0725,0.0725 -0.3198,0.21735 -0.21734,0.21735 0.162,0 0.281,-0.16612 0.43468,-0.21735 0.13642,-0.0455 0.69441,0 0.86938,0 0.0979,0 0.58588,-0.0331 0.65202,0 0.0577,0.0289 0.62318,0.59433 0.65203,0.65203 0.0324,0.0648 -0.0324,0.15255 0,0.21735 0.0458,0.0916 0.17153,0.1257 0.21735,0.21734 0.0324,0.0648 0.0724,0.21734 0,0.21734 -0.0725,0 0,-0.28979 0,-0.21734 0,0.14489 0,0.28979 0,0.43468 0,0.0725 -0.0324,0.15255 0,0.21735 0.0458,0.0916 0.14489,0.14489 0.21734,0.21734 0.0725,0.0725 0.1257,0.17152 0.21734,0.21734 0.0648,0.0324 0.1449,0 0.21734,0 0.0725,0 0.16612,0.0512 0.21735,0 0.0512,-0.0512 0,-0.14489 0,-0.21734 0,-0.15117 -0.0393,-1.00812 0,-1.08671 0.0458,-0.0916 0.17152,-0.12571 0.21734,-0.21735 0.3198,-0.6396 -0.50349,0.28615 0.21734,-0.43468 0.0724,-0.0725 0.1449,-0.1449 0.21735,-0.21735 0.0724,-0.0724 0.14489,-0.28979 0.21734,-0.21734 0.0725,0.0725 -0.21734,0.3198 -0.21734,0.21734 0,-0.16199 0.16611,-0.281 0.21734,-0.43468 0.0229,-0.0687 0,-0.1449 0,-0.21735 0,-0.31979 0.0512,-0.16611 -0.21734,-0.43468 -0.0725,-0.0725 -0.17153,-0.1257 -0.21735,-0.21734 -0.0648,-0.1296 0.0648,-0.30509 0,-0.43469 -0.0458,-0.0916 -0.17152,-0.1257 -0.21734,-0.21734 -0.0869,-0.17388 0.0869,-0.47816 0,-0.65203 -0.0916,-0.18328 -0.34305,-0.25141 -0.43469,-0.43469 -0.0648,-0.1296 0.0648,-0.30509 0,-0.43468 -0.0458,-0.0916 -0.17152,-0.12571 -0.21734,-0.21735 -0.0281,-0.0562 0,-1.15 0,-1.30406 0,-0.57958 0,-1.15916 0,-1.73874 0,-0.11365 -0.0286,-0.81222 0,-0.86937 0.0458,-0.0916 0.17153,-0.1257 0.21734,-0.21734 0.0324,-0.0648 -0.0724,-0.21735 0,-0.21735 0.0725,0 0,0.28979 0,0.21735 0,-0.1449 0,-0.28979 0,-0.43469 0,-0.0725 0,-0.1449 0,-0.21734 0,-0.0725 -0.0724,-0.21735 0,-0.21735 0.0725,0 0,0.28979 0,0.21735 0,-0.1449 0.0648,-0.30509 0,-0.43469 -0.0324,-0.0648 -0.15254,0.0324 -0.21734,0 -0.0916,-0.0458 -0.1257,-0.17152 -0.21734,-0.21734 -0.0661,-0.0331 -0.55415,0 -0.65203,0 -0.1449,0 -0.28979,0 -0.43469,0 -0.0724,0 -0.21734,0.0725 -0.21734,0 0,-0.0725 0.28979,0 0.21734,0 -0.14489,0 -0.28979,0 -0.43468,0 -0.0979,0 -0.58589,0.0331 -0.65203,0 -0.0916,-0.0458 -0.1449,-0.1449 -0.21734,-0.21734 -0.0725,-0.0725 -0.17153,-0.12571 -0.21735,-0.21735 -0.0324,-0.0648 0.0512,-0.16611 0,-0.21734 -0.3198,0 -0.16611,0.0512 -0.43468,-0.21734 -0.0725,-0.0725 -0.1449,-0.1449 -0.21735,-0.21735 -0.0724,-0.0724 -0.17152,-0.1257 -0.21734,-0.21734 -0.0324,-0.0648 -0.0725,-0.21734 0,-0.21734 0.0724,0 0.0724,0.21734 0,0.21734 -0.10246,0 -0.1257,-0.17152 -0.21734,-0.21734 -0.53531,-0.26766 0.1962,0.63089 -0.65203,-0.21735 -0.0512,-0.0512 0,-0.14489 0,-0.21734 0,-0.0725 -0.0324,-0.15254 0,-0.21734 0.0458,-0.0916 0.17152,-0.1257 0.21734,-0.21734 0.0324,-0.0648 -0.0324,-0.15255 0,-0.21735 0.0458,-0.0916 0.17153,-0.1257 0.21735,-0.21734 0.0393,-0.0786 0,-0.93554 0,-1.08672 0,-0.43468 0.0724,-0.0724 -0.21735,-0.21734 -0.0916,-0.0458 -0.14489,-0.14489 -0.21734,-0.21734 -0.16324,-0.16325 -0.48083,-0.43469 -0.21734,-0.43469 0.0724,0 0.0724,0.21735 0,0.21735 -0.59958,0 0.16489,-0.21735 -0.43469,-0.21735 -0.43469,0 -0.86937,0 -1.30406,0 -0.50971,0 0.10246,0.0512 -0.43468,-0.21734 -0.0836,-0.0418 -0.50022,0.11031 -0.43469,-0.21734 0.0635,-0.31771 0.28979,-0.57958 0.43469,-0.86938 z"
     id="Alar"
     class="region"
     synonym="Аларь, Аларьский район"
     inkscape:connector-curvature="0" />
  <path
     style="fill:none;stroke:#000000;stroke-width:1px;stroke-linecap:butt;stroke-linejoin:miter;stroke-opacity:1"
     d="m 221.9072,573.36686 c -0.28979,0.0725 -0.57958,0.14489 -0.86937,0.21734 -0.0725,0.0725 -0.1257,0.17152 -0.21734,0.21734 -0.0648,0.0324 -0.16612,-0.0512 -0.21735,0 -0.0512,0.0512 0.0512,0.16612 0,0.21735 -0.10245,0.10245 -0.33223,-0.10246 -0.43468,0 -0.0512,0.0512 0.0324,0.15254 0,0.21734 -0.0458,0.0916 -0.17153,0.1257 -0.21735,0.21734 -0.0324,0.0648 0.0512,0.16612 0,0.21735 -0.0512,0.0512 -0.16611,-0.0512 -0.21734,0 -0.0512,0.0512 0.0512,0.16611 0,0.21734 -0.0512,0.0512 -0.16611,-0.0512 -0.21734,0 -0.0512,0.0512 0.0324,0.15254 0,0.21734 -0.0458,0.0916 -0.17153,0.12571 -0.21735,0.21735 -0.0331,0.0661 0,0.55414 0,0.65202 0,0.65203 0,1.30406 0,1.95609 0,0.1449 0,0.28979 0,0.43469 0,0.0725 0.0725,0.21734 0,0.21734 -0.0724,0 0,-0.28979 0,-0.21734 0,0.14489 0.0648,0.30509 0,0.43468 -0.0648,0.1296 -0.33222,-0.10245 -0.43468,0 -0.10246,0.10246 0.10246,0.33223 0,0.43469 -0.0444,0.0444 -0.56586,-0.0431 -0.65203,0 -0.18328,0.0916 -0.25141,0.34305 -0.43469,0.43469 -0.0648,0.0324 -0.16611,-0.0512 -0.21734,0 -0.0512,0.0512 0.0324,0.15254 0,0.21734 -0.45226,0.90453 0.015,-0.23235 -0.43469,0.21734 -0.0512,0.0512 0.0512,0.16612 0,0.21734 -0.0512,0.0512 -0.16611,-0.0512 -0.21734,0 -0.0512,0.0512 0.0512,0.16612 0,0.21735 -0.0512,0.0512 -0.16611,-0.0512 -0.21734,0 -0.0512,0.0512 0.0512,0.16611 0,0.21734 -0.0512,0.0512 -0.16612,-0.0512 -0.21734,0 -0.0512,0.0512 0.0512,0.16612 0,0.21734 -0.10246,0.10246 -0.33223,-0.10245 -0.43469,0 -0.10867,0.10868 0.10867,0.54336 0,0.65203 -0.10246,0.10246 -0.33223,-0.10245 -0.43469,0 -0.0512,0.0512 0.0512,0.16612 0,0.21735 -0.10245,0.10245 -0.33223,-0.10246 -0.43468,0 -0.44969,0.44969 0.68718,-0.0176 -0.21735,0.43468 -0.12959,0.0648 -0.33222,-0.10245 -0.43468,0 -0.0512,0.0512 0.0512,0.16612 0,0.21734 -0.10246,0.10246 -0.30509,-0.0648 -0.43469,0 -0.0916,0.0458 -0.1257,0.17153 -0.21734,0.21735 -0.0648,0.0324 -0.16611,-0.0512 -0.21734,0 -0.0512,0.0512 0.0512,0.16611 0,0.21734 -0.0512,0.0512 -0.16612,-0.0512 -0.21735,0 -0.0512,0.0512 0.0512,0.16612 0,0.21734 -0.0512,0.0512 -0.15254,-0.0324 -0.21734,0 -0.0916,0.0458 -0.1257,0.17153 -0.21734,0.21735 -0.13661,0.0683 -0.73277,-0.0683 -0.86937,0 -0.0916,0.0458 -0.12571,0.17152 -0.21735,0.21734 -0.0648,0.0324 -0.16611,-0.0512 -0.21734,0 -0.0512,0.0512 0.0512,0.16611 0,0.21734 -0.10246,0.10246 -0.33223,-0.10245 -0.43469,0 -0.0512,0.0512 0.0512,0.16612 0,0.21735 -0.0512,0.0512 -0.16611,-0.0512 -0.21734,0 -0.0512,0.0512 0.0512,0.16611 0,0.21734 -0.10867,0.10867 -0.54336,-0.10867 -0.65203,0 -0.0512,0.0512 0.0512,0.16611 0,0.21734 -0.10245,0.10246 -0.33223,-0.10245 -0.43468,0 -0.0512,0.0512 0.0324,0.15255 0,0.21734 -0.45227,0.90453 0.015,-0.23234 -0.43469,0.21735 -0.0512,0.0512 0.0512,0.16611 0,0.21734 -0.10246,0.10246 -0.33223,-0.10246 -0.43469,0 -0.10245,0.10246 0.0648,0.30509 0,0.43469 -0.0458,0.0916 -0.14489,0.14489 -0.21734,0.21734 -0.0725,0.0725 -0.1257,0.17152 -0.21734,0.21734 -0.13712,0.0686 -0.9496,-0.0686 -1.08672,0 -0.90453,0.45227 0.23235,-0.015 -0.21734,0.43469 -0.0512,0.0512 -0.16611,-0.0512 -0.21734,0 -0.0512,0.0512 0.0512,0.16611 0,0.21734 -0.0512,0.0512 -0.16612,-0.0512 -0.21735,0 -0.0512,0.0512 0.0512,0.16612 0,0.21734 -0.0512,0.0512 -0.16611,-0.0512 -0.21734,0 -0.0512,0.0512 0,0.1449 0,0.21735 0,0.43468 0,0.86937 0,1.30406 0,0.0724 0.0512,0.16611 0,0.21734 -0.10246,0.10246 -0.33223,-0.10246 -0.43469,0 -0.0512,0.0512 0.0512,0.16611 0,0.21734 -0.0512,0.0512 -0.21734,0.0725 -0.21734,0 0,-0.0725 0.21734,-0.0725 0.21734,0 0,0.45227 -0.30479,0.0874 -0.43468,0.21734 -0.10246,0.10246 0.14489,0.43469 0,0.43469 -0.0725,0 0,-0.28979 0,-0.21734 0,0.28979 0,0.57958 0,0.86937 0,0.0725 -0.0512,0.16611 0,0.21734 0.10867,0.10867 0.54336,-0.10867 0.65203,0 0.10245,0.10246 -0.10246,0.33223 0,0.43469 0.0512,0.0512 0.15254,-0.0324 0.21734,0 0.0916,0.0458 0.1257,0.17152 0.21734,0.21734 0.0648,0.0324 0.21735,-0.0725 0.21735,0 0,0.0725 -0.28979,0 -0.21735,0 0.65203,0 1.30406,0 1.95609,0 0.28979,0 0.57958,0 0.86937,0 0.0725,0 0.21735,-0.0725 0.21735,0 0,0.0725 -0.28979,0 -0.21735,0 0.21735,0 0.43469,0 0.65203,0 0.0724,0 0.16612,-0.0512 0.21734,0 0.0512,0.0512 -0.0512,0.16612 0,0.21734 0.0512,0.0512 0.1449,0 0.21735,0 0.10247,0 1.07686,-0.01 1.08671,0 0.0512,0.0512 -0.0324,0.15255 0,0.21735 0.0916,0.18328 0.34305,0.2514 0.43469,0.43468 0.0324,0.0648 -0.0512,0.16612 0,0.21735 0.0512,0.0512 0.16611,-0.0512 0.21734,0 0.10246,0.10245 -0.10245,0.33223 0,0.43468 0.0512,0.0512 0.16612,-0.0512 0.21734,0 0.0512,0.0512 -0.0512,0.16612 0,0.21735 0.0512,0.0512 0.16612,-0.0512 0.21735,0 0.0512,0.0512 0,0.14489 0,0.21734 0,0.43468 0,0.86937 0,1.30406 0,0.0724 -0.0512,0.16611 0,0.21734 0.0512,0.0512 0.16611,-0.0512 0.21734,0 0.10246,0.10246 -0.0648,0.30509 0,0.43469 0.45227,0.90453 -0.015,-0.23235 0.43469,0.21734 0.0512,0.0512 -0.0512,0.16611 0,0.21734 0.0512,0.0512 0.14489,0 0.21734,0 0.0725,0 0.1449,0 0.21734,0 0.0725,0 0.1449,0 0.21735,0 0.0724,0 0.16611,-0.0512 0.21734,0 0.0512,0.0512 -0.0512,0.16612 0,0.21734 0.10246,0.10246 0.43468,-0.14489 0.43468,0 0,0.0725 -0.21734,-0.0724 -0.21734,0 0,0.10246 0.1449,0.1449 0.21734,0.21735 0.31554,0.31554 0.23529,0.21734 0.65203,0.21734 0.0725,0 0.16612,0.0512 0.21735,0 0.10245,-0.10246 -0.10246,-0.33223 0,-0.43469 0.0512,-0.0512 0.16611,0.0512 0.21734,0 0.0512,-0.0512 -0.0512,-0.16611 0,-0.21734 0.10246,-0.10245 0.33223,0.10246 0.43469,0 0.0512,-0.0512 -0.0324,-0.15254 0,-0.21734 0.0458,-0.0916 0.17152,-0.1257 0.21734,-0.21734 0,-0.57959 -0.0725,0.0724 0.21734,-0.21735 0.0512,-0.0512 -0.0725,-0.21734 0,-0.21734 0.0725,0 -0.0725,0.21734 0,0.21734 0.45227,0 0.0874,-0.30479 0.21734,-0.43468 0.0512,-0.0512 0.16612,0.0512 0.21735,0 0.10245,-0.10246 -0.10246,-0.33223 0,-0.43469 0.10245,-0.10246 0.33223,0.10246 0.43468,0 0.0512,-0.0512 -0.0512,-0.16611 0,-0.21734 0.10246,-0.10246 0.33223,0.10245 0.43469,0 0.10246,-0.10246 -0.10246,-0.33223 0,-0.43469 0.0512,-0.0512 0.16611,0.0512 0.21734,0 0.0512,-0.0512 -0.0724,-0.21734 0,-0.21734 0.0725,0 -0.0724,0.21734 0,0.21734 0.43427,0 0.0879,-0.52253 0.21735,-0.65203 0.0512,-0.0512 0.16611,0.0512 0.21734,0 0.10246,-0.10245 -0.1449,-0.43468 0,-0.43468 0.0725,0 -0.0724,0.21734 0,0.21734 0.10246,0 0.1257,-0.17152 0.21734,-0.21734 0.13712,-0.0686 0.9496,0.0685 1.08672,0 0.0916,-0.0458 0.1257,-0.17153 0.21734,-0.21735 0.1296,-0.0648 0.33223,0.10246 0.43469,0 0.10867,-0.10867 -0.10868,-0.54335 0,-0.65203 0.0512,-0.0512 0.14489,0 0.21734,0 0.11365,0 0.81222,-0.0286 0.86937,0 0.18328,0.0916 0.25141,0.34305 0.43469,0.43469 0.0648,0.0324 0.15254,-0.0324 0.21734,0 0.18328,0.0916 0.25141,0.34305 0.43469,0.43469 0.0648,0.0324 0.14489,0 0.21734,0 0.0725,0 0.14489,0 0.21734,0 0.0725,0 0.16612,0.0512 0.21734,0 0.0512,-0.0512 0,-0.1449 0,-0.21735 0,-0.0724 0,-0.14489 0,-0.21734 0,-1.01427 0,-2.02853 0,-3.0428 0,-0.0527 -0.007,-0.64504 0,-0.65203 0.57959,0 -0.0724,0.0725 0.21735,-0.21734 0.0512,-0.0512 0.16611,0.0512 0.21734,0 0.10246,-0.10246 -0.10246,-0.33223 0,-0.43469 0.0512,-0.0512 0.1449,0 0.21734,0 0,-0.0725 -0.0512,-0.16611 0,-0.21734 0.0512,-0.0512 0.16612,0.0512 0.21735,0 0.0512,-0.0512 -0.0512,-0.16612 0,-0.21735 0.0512,-0.0512 0.16611,0.0512 0.21734,0 0.0512,-0.0512 -0.0512,-0.16611 0,-0.21734 0.0512,-0.0512 0.16611,0.0512 0.21734,0 0.44969,-0.44969 -0.68718,0.0176 0.21735,-0.43468 0.0648,-0.0324 0.16611,0.0512 0.21734,0 0.10246,-0.10246 -0.10246,-0.33223 0,-0.43469 0.0512,-0.0512 0.16611,0.0512 0.21734,0 0.0512,-0.0512 -0.0512,-0.16611 0,-0.21734 0.0512,-0.0512 0.16612,0.0512 0.21734,0 0.0512,-0.0512 -0.0512,-0.16612 0,-0.21735 0.10868,-0.10867 0.54336,0.10868 0.65203,0 0.0512,-0.0512 -0.0512,-0.16611 0,-0.21734 0.10246,-0.10246 0.33223,0.10246 0.43469,0 0.0512,-0.0512 0,-0.14489 0,-0.21734 0,-0.11366 0.0286,-0.81223 0,-0.86937 -0.0916,-0.18328 -0.34305,-0.25141 -0.43469,-0.43469 -0.0683,-0.13661 0.0683,-0.73277 0,-0.86937 -0.0458,-0.0916 -0.17152,-0.12571 -0.21734,-0.21735 -0.1499,-0.29979 0.26321,-0.1944 -0.21734,-0.43468 -0.0648,-0.0324 -0.16612,0.0512 -0.21735,0 -0.14545,-0.14546 0.14546,-0.28923 0,-0.43469 -0.0673,-0.0673 -1.01941,0.0673 -1.08671,0 -0.0512,-0.0512 0.0512,-0.16611 0,-0.21734 -0.0512,-0.0512 -0.16612,0.0512 -0.21734,0 -0.0512,-0.0512 0.0512,-0.16611 0,-0.21734 -0.10246,-0.10246 -0.33223,0.10245 -0.43469,0 -0.0444,-0.0444 0.0431,-0.56586 0,-0.65203 -0.0458,-0.0916 -0.17152,-0.12571 -0.21734,-0.21735 -0.0324,-0.0648 0,-0.14489 0,-0.21734 0,-0.0725 0,-0.14489 0,-0.21734 0,-0.36224 0,-0.72448 0,-1.08672 0,-0.0724 0,-0.14489 0,-0.21734 0,-0.0725 0.0512,-0.16611 0,-0.21734 -0.0512,-0.0512 -0.16612,0.0512 -0.21735,0 -0.0512,-0.0512 0.0324,-0.15255 0,-0.21735 -0.0458,-0.0916 -0.17152,-0.1257 -0.21734,-0.21734 -0.0324,-0.0648 0.0512,-0.16611 0,-0.21734 -0.44969,-0.44969 0.0176,0.68719 -0.43468,-0.21734 -0.0324,-0.0648 0,-0.1449 0,-0.21735 0,-0.0724 -0.0725,-0.21734 0,-0.21734 0.0724,0 0,0.28979 0,0.21734 0,-0.21734 0,-0.43468 0,-0.65203 0,-0.0724 -0.0725,-0.21734 0,-0.21734 0.0724,0 0,0.28979 0,0.21734 0,-0.14489 0,-0.28979 0,-0.43468 0,-0.0725 0.0512,-0.16612 0,-0.21735 -0.28979,-0.28979 -0.21735,0.36224 -0.21735,-0.21734 0,-0.15117 0.0393,-1.00811 0,-1.08671 -0.0458,-0.0916 -0.17152,-0.12571 -0.21734,-0.21735 -0.0331,-0.0661 0,-0.55414 0,-0.65203 0,-0.0724 0,-0.14489 0,-0.21734 0,-0.0725 0.0687,-0.19443 0,-0.21734 -0.20619,-0.0687 -0.43469,0 -0.65203,0 z"
     id="path22"
     class="region"
     inkscape:connector-curvature="0" />
</svg>
